<?xml version="1.0" ?>
<!-- Uploaded to: SVG Repo, www.svgrepo.com, Generator: SVG Repo Mixer Tools -->
<svg width="800px" height="800px" viewBox="0 0 64 64" xmlns="http://www.w3.org/2000/svg">
<defs>
<style>.cls-1{fill:#eaaadd;}.cls-2{fill:#e490d0;}.cls-3{fill:#e29375;}.cls-4{fill:#eaafa5;}.cls-5{fill:#f1cbc6;}.cls-6{fill:#bc95e2;}.cls-7{fill:#ac80dd;}.cls-8{fill:#9d66d5;}.cls-9{fill:#f6f9f9;}.cls-10{fill:#e7ecf1;}.cls-11{fill:#d57080;}.cls-12{fill:#cb5769;}.cls-13{fill:none;}</style>
</defs>
<g data-name="Winter Avatar" id="Winter_Avatar-39">
<path class="cls-1" d="M18.59,43.77a6.09,6.09,0,0,0-4.52,5.89V54.4A1.61,1.61,0,0,0,15.68,56H48.32a1.61,1.61,0,0,0,1.61-1.6V49.66a6.09,6.09,0,0,0-4.52-5.89Z" id="path170677"/>
<path class="cls-2" d="M40.83,43.78a6.06,6.06,0,0,1,4.52,5.88v4.73A1.61,1.61,0,0,1,43.74,56h4.58a1.6,1.6,0,0,0,1.6-1.61V49.66a6.06,6.06,0,0,0-4.51-5.88Z" id="path170679"/>
<path class="cls-3" d="M16.6,24.85l1,8c-.22,2-.45,3.86-.63,4.91a1.21,1.21,0,0,0,.39,1.1c3,2.11,10,1.51,10,1.51h9.2s7,.6,10-1.51a1.21,1.21,0,0,0,.39-1.1c-.18-1.05-.41-2.92-.63-4.91l1.06-8L32.49,15.67Z" id="path170681"/>
<path class="cls-4" d="M45.47,22.15H18.53c-.72.15-1.93,2.7-1.93,2.7a4.72,4.72,0,0,0,2.91,8.43h25a4.71,4.71,0,0,0,2.92-8.42S46.19,22.3,45.47,22.15Z" id="path170683"/>
<path class="cls-5" d="M45.47,24l.19,2.37a13.71,13.71,0,1,1-27.32,0L18.45,25l.08-1,8.19-8.52L40,17Z" id="path170685"/>
<path class="cls-4" d="M26.72,15.43l-.38.4L36.24,17l5.5,5.2.16,4.13A13.7,13.7,0,0,1,30.12,41a14.47,14.47,0,0,0,1.88.13A13.71,13.71,0,0,0,45.66,26.32L45.47,24,40,17Z" id="path170687"/>
<path class="cls-6" d="M40.84,46a33.35,33.35,0,0,0,3.86-1.42,1.62,1.62,0,0,0,.68-2.13L44.13,38.5a1.67,1.67,0,0,0-2.25-.75c-.44.19-1,.39-1.57.6l-7.06,1.43c-.41,0-.83,0-1.25,0a26.59,26.59,0,0,1-9.88-2.06,1.68,1.68,0,0,0-2.26.75l-1.24,3.91a1.62,1.62,0,0,0,.68,2.13A32.44,32.44,0,0,0,32,47.29c.42,0,.84,0,1.25,0Z" id="path155715"/>
<path class="cls-7" d="M42.54,37.6a2.44,2.44,0,0,0-.66.15c-.44.18-1,.39-1.57.6l-.38.07a1.49,1.49,0,0,1,1.56.9l1.25,3.92a1.62,1.62,0,0,1-.68,2.12c-.46.2-1,.43-1.64.67l.42-.07a33.35,33.35,0,0,0,3.86-1.42,1.62,1.62,0,0,0,.68-2.13L44.14,38.5A1.51,1.51,0,0,0,42.54,37.6Z" id="path155717"/>
<path class="cls-7" d="M34.79,38h4.5a1.54,1.54,0,0,1,1.54,1.54V51.16a1.53,1.53,0,0,1-1.54,1.54h-4.5a1.53,1.53,0,0,1-1.54-1.54V39.5A1.54,1.54,0,0,1,34.79,38Z" id="path155719"/>
<path class="cls-8" d="M37.18,38a1.54,1.54,0,0,1,1.54,1.54V51.16a1.54,1.54,0,0,1-1.54,1.54h2.11a1.54,1.54,0,0,0,1.54-1.54V39.5A1.54,1.54,0,0,0,39.29,38Z" id="path155721"/>
<path class="cls-9" d="M45.81,19.48C44.92,12.92,39,8,32,8S19.1,12.91,18.21,19.47l16.61-3.9Z" id="path15698-5-1-1-8"/>
<path class="cls-10" d="M32,8a16,16,0,0,0-2.1.15,13.68,13.68,0,0,1,11.37,9.72l4.53,1.61C44.92,12.92,39,8,32,8Z" id="path159149-9"/>
<path class="cls-11" d="M32,14.4c-9.88,0-14.89,6.18-14.89,6.18a2,2,0,1,0,3.22,2.5s3.41-4.6,11.67-4.6,11.67,4.6,11.67,4.6a2,2,0,1,0,3.21-2.5S41.88,14.4,32,14.4Z" id="path14243-9-5-0-7"/>
<path class="cls-12" d="M43.15,17.48A2.23,2.23,0,0,1,41,20.8a10.17,10.17,0,0,1,2.71,2.29,2,2,0,1,0,3.21-2.51A16,16,0,0,0,43.15,17.48Z" id="path8916-0-9-3"/>
<path class="cls-13" d="M32.72,18.75c.59.67,6.51,7,12.75,5.2a4.69,4.69,0,0,1,1.94.91l-.25-3a15,15,0,0,0-6.88-11.42l-3.53.32Z" id="path170689"/>
<path class="cls-13" d="M32,8A15.11,15.11,0,0,0,16.85,21.83l-.25,3a4.76,4.76,0,0,1,1.93-.9l1-.09c.67-.07,1.38-.19,2-.29A27.67,27.67,0,0,0,40.28,10.41a15.33,15.33,0,0,0-1.91-1A15.5,15.5,0,0,0,32,8Z" id="path170691"/>
<path d="M15.68,57H48.32a2.61,2.61,0,0,0,2.61-2.6V49.66a7.06,7.06,0,0,0-4.43-6.55,3.62,3.62,0,0,0-.17-1l-.52-1.66a6.08,6.08,0,0,0,2-1.27,1,1,0,0,0,.26-1,48.22,48.22,0,0,1-.66-4.78,5.66,5.66,0,0,0,.18-9.65A3,3,0,0,0,47.66,20a8.71,8.71,0,0,0-.94-1C45.59,12.12,39.34,7,32,7S18.41,12.12,17.28,19c-.58.55-.9.94-1,1a3.07,3.07,0,0,0,.07,3.83,5.67,5.67,0,0,0,.19,9.65,48.22,48.22,0,0,1-.66,4.78,1,1,0,0,0,.26,1,6.08,6.08,0,0,0,2,1.27l-.52,1.66a3.61,3.61,0,0,0-.17,1,7.08,7.08,0,0,0-4.43,6.56V54.4A2.61,2.61,0,0,0,15.68,57ZM32.25,46.29H32a31.56,31.56,0,0,1-12.3-2.66c-.35-.16-.17-.79-.13-.91l1.25-3.92c.13-.31.48-.3.91-.12A27.69,27.69,0,0,0,32,40.81h.25Zm.11-7.49H32a25,25,0,0,1-7.82-1.35,12.67,12.67,0,0,1-4.85-11l.14-1.65a3,3,0,0,0,1.66-1.08c.13-.17,3.27-4.2,10.87-4.2s10.74,4,10.88,4.22a3,3,0,0,0,1.65,1.06l.14,1.65a12.68,12.68,0,0,1-4.48,10.73,2.45,2.45,0,0,0-.9-.18h-4.5A2.53,2.53,0,0,0,32.36,38.8ZM44.48,22.49a8.37,8.37,0,0,0-.81-.88,5.21,5.21,0,0,0,.58-2.12,13.21,13.21,0,0,1,1.85,1.7,1,1,0,0,1-.18,1.46A1,1,0,0,1,44.48,22.49Zm-2.74-4.65a2.46,2.46,0,0,1,.31,2.47,15.19,15.19,0,0,0-3.66-1.81,3.88,3.88,0,0,0,.19-2A19.45,19.45,0,0,1,41.74,17.84Zm-5.43-2a2.38,2.38,0,0,1,.16,2.1,20.28,20.28,0,0,0-3-.42V15.45A20.83,20.83,0,0,1,36.31,15.85ZM31.43,17.5a19.63,19.63,0,0,0-3.9.45,2.42,2.42,0,0,1,.16-2.1,20.53,20.53,0,0,1,3.74-.43Zm-5.82,1A15.19,15.19,0,0,0,22,20.31a2.46,2.46,0,0,1,.31-2.47,19.72,19.72,0,0,1,3.15-1.37A4,4,0,0,0,25.61,18.5Zm-7.72,2.71a13,13,0,0,1,1.86-1.72,5.21,5.21,0,0,0,.58,2.12,6.88,6.88,0,0,0-.79.86,1,1,0,0,1-1.46.18A1,1,0,0,1,17.89,21.21ZM34.25,39.5a.54.54,0,0,1,.54-.54h4.5a.54.54,0,0,1,.54.54V51.16a.54.54,0,0,1-.54.54h-4.5a.54.54,0,0,1-.54-.54Zm7.49-.62.53-.2c.44-.19.8-.16.91.12l1.25,3.92c0,.12.22.75-.13.91-.59.25-1.44.6-2.47,1V39.5A2.16,2.16,0,0,0,41.74,38.88ZM46,38.09a5.08,5.08,0,0,1-.81.45l-.11-.35a2.23,2.23,0,0,0-1.21-1.33,2.25,2.25,0,0,0-.46-.15,14.78,14.78,0,0,0,1.63-2.46c.15,0,.29-.06.44-.08C45.75,36.38,45.91,37.51,46,38.09ZM46,32a14.75,14.75,0,0,0,.65-5.71l-.06-.74A3.71,3.71,0,0,1,46,32ZM32,9a13,13,0,0,1,12.08,7.89A21.71,21.71,0,0,0,32,13.4a21.73,21.73,0,0,0-12.08,3.49A13,13,0,0,1,32,9ZM17.4,25.5l-.06.74A14.75,14.75,0,0,0,18,32a3.71,3.71,0,0,1-.59-6.45ZM18,38.09c.1-.58.26-1.71.52-3.92.15,0,.29.07.44.08a14.18,14.18,0,0,0,1.63,2.46,2.25,2.25,0,0,0-.46.15,2.23,2.23,0,0,0-1.21,1.33l-.11.35A5.08,5.08,0,0,1,18,38.09ZM15.07,49.66A5.09,5.09,0,0,1,18.21,45a2.21,2.21,0,0,0,.69.49A33.41,33.41,0,0,0,32,48.29h.25v2.87a2.54,2.54,0,0,0,2.54,2.54h4.5a2.54,2.54,0,0,0,2.54-2.54V46.69c1.39-.45,2.54-.91,3.27-1.23a2.21,2.21,0,0,0,.69-.49,5.09,5.09,0,0,1,3.14,4.69V54.4a.61.61,0,0,1-.61.6H15.68a.61.61,0,0,1-.61-.6Z"/>
<path d="M28.46,28.79V27.43a1,1,0,0,0-2,0v1.36a1,1,0,0,0,2,0Z"/>
<path d="M36.54,29.79a1,1,0,0,0,1-1V27.43a1,1,0,0,0-2,0v1.36A1,1,0,0,0,36.54,29.79Z"/>
<path d="M36.71,32.7a1,1,0,0,0-1.39-.25,6.64,6.64,0,0,1-6.64,0,1,1,0,0,0-1.15,1.64,8.62,8.62,0,0,0,8.94,0A1,1,0,0,0,36.71,32.7Z"/>
</g>
</svg>