<?xml version="1.0" ?>
<!-- Uploaded to: SVG Repo, www.svgrepo.com, Generator: SVG Repo Mixer Tools -->
<svg width="800px" height="800px" viewBox="0 0 64 64" xmlns="http://www.w3.org/2000/svg">
<defs>
<style>.cls-1{fill:#e29375;}.cls-2{fill:#eaafa5;}.cls-3{fill:#f1cbc6;}.cls-4{fill:#e7aa90;}.cls-5{fill:#cb5769;}.cls-6{fill:#d57080;}.cls-7{fill:#eaaadd;}.cls-8{fill:#e490d0;}.cls-9{fill:#bc95e2;}.cls-10{fill:#ac80dd;}.cls-11{fill:#9d66d5;}</style>
</defs>
<g data-name="Winter Avatar" id="Winter_Avatar-17">
<path class="cls-1" d="M19.74,29.35l.89,6.89c-.19,1.7-.38,3.3-.54,4.2a1,1,0,0,0,.34.94C23,43.18,29,42.67,29,42.67h7.87s6,.51,8.55-1.29a1.06,1.06,0,0,0,.33-.94c-.15-.9-.35-2.5-.53-4.2l.9-6.88L33.33,21.49Z" id="path13030"/>
<path class="cls-2" d="M44.43,27h-23c-.62.13-1.65,2.31-1.65,2.31a4,4,0,0,0,2.48,7.21H43.6a4,4,0,0,0,2.5-7.2S45.05,27.17,44.43,27Z" id="path13032"/>
<path class="cls-3" d="M44.43,28.58l.17,2a11.73,11.73,0,1,1-23.38,0l.1-1.15.07-.88,7-7.29,11.35,1.33Z" id="path13034"/>
<path class="cls-2" d="M28.4,21.29l-.33.34,8.47,1,4.68,5.95.17,2A11.73,11.73,0,0,1,31.3,43.19a12.32,12.32,0,0,0,1.61.11A11.73,11.73,0,0,0,44.6,30.61l-.17-2-4.68-5.95Z" id="path13036"/>
<path class="cls-1" d="M33.53,24.13c.51.57,5.57,6,10.9,4.45a4,4,0,0,1,1.67.78l-.22-2.6A12.84,12.84,0,0,0,40,17l-3,.28Z" id="path13038"/>
<path class="cls-4" d="M32.92,14.93A12.92,12.92,0,0,0,20,26.76l-.21,2.59a4,4,0,0,1,1.65-.77l.82-.08c.57-.06,1.18-.16,1.71-.25A23.67,23.67,0,0,0,40,17a13.61,13.61,0,0,0-1.64-.89A13.17,13.17,0,0,0,32.92,14.93Z" id="path13040"/>
<path class="cls-5" d="M29.4,16.41l6.26-.63a1.37,1.37,0,0,0,1.05-2L33.78,8.68a1.36,1.36,0,0,0-1.9-.48,1.33,1.33,0,0,0-.39.36l-3.67,5.11-4.58,2.65L17,17a1.21,1.21,0,0,0-.51.15A1.36,1.36,0,0,0,15.93,19l2.93,5.07a1.36,1.36,0,0,0,2.28.11l3.68-5.1Z" id="path9745-2-31-3"/>
<path class="cls-6" d="M24.48,13.18a2.65,2.65,0,0,1,3.62,1l1.3,2.26a2.65,2.65,0,1,1-4.58,2.65L23.51,16.8A2.65,2.65,0,0,1,24.48,13.18Z" id="rect4471-6-1-6"/>
<path class="cls-7" d="M21.44,45.54a5.2,5.2,0,0,0-3.87,5v4.05A1.37,1.37,0,0,0,19,56H46.88a1.37,1.37,0,0,0,1.37-1.37V50.58a5.19,5.19,0,0,0-3.87-5Z" id="path170677-6"/>
<path class="cls-8" d="M40.47,45.54a5.19,5.19,0,0,1,3.86,5v4.05A1.37,1.37,0,0,1,43,56h3.92a1.37,1.37,0,0,0,1.37-1.37V50.58a5.19,5.19,0,0,0-3.86-5Z" id="path170679-0"/>
<path class="cls-9" d="M40.47,47.41a29.08,29.08,0,0,0,3.31-1.21,1.38,1.38,0,0,0,.58-1.82L43.3,41a1.43,1.43,0,0,0-1.93-.64c-.38.15-.83.33-1.35.51l-6,1.22c-.35,0-.71,0-1.07,0a22.81,22.81,0,0,1-8.45-1.76,1.42,1.42,0,0,0-1.93.64c-.36,1.11-.71,2.23-1.07,3.35A1.39,1.39,0,0,0,22,46.2a27.89,27.89,0,0,0,10.87,2.35l1.07,0Z" id="path155715-6"/>
<path class="cls-10" d="M41.93,40.26a1.58,1.58,0,0,0-.56.13c-.38.15-.83.33-1.35.51L39.7,41a1.27,1.27,0,0,1,1.33.77l1.07,3.35a1.39,1.39,0,0,1-.58,1.82c-.39.17-.86.37-1.4.57l.35-.06a31.16,31.16,0,0,0,3.31-1.21,1.38,1.38,0,0,0,.58-1.82L43.3,41A1.3,1.3,0,0,0,41.93,40.26Z" id="path155717-2"/>
<path class="cls-10" d="M35.3,40.57h3.85a1.32,1.32,0,0,1,1.32,1.32v10a1.32,1.32,0,0,1-1.32,1.32H35.3A1.32,1.32,0,0,1,34,51.86v-10A1.32,1.32,0,0,1,35.3,40.57Z" id="path155719-6"/>
<path class="cls-11" d="M37.34,40.57a1.32,1.32,0,0,1,1.32,1.32v10a1.32,1.32,0,0,1-1.32,1.32h1.81a1.32,1.32,0,0,0,1.32-1.32v-10a1.32,1.32,0,0,0-1.32-1.32Z" id="path155721-1"/>
<path d="M28.7,33.63a1,1,0,0,0,1-1V32a1,1,0,0,0-2,0v.6A1,1,0,0,0,28.7,33.63Z"/>
<path d="M37.13,33.63a1,1,0,0,0,1-1V32a1,1,0,0,0-2,0v.6A1,1,0,0,0,37.13,33.63Z"/>
<path d="M28.76,35.8A1,1,0,0,0,29,37.2a7.31,7.31,0,0,0,3.91,1.1,7.23,7.23,0,0,0,3.91-1.1,1,1,0,0,0-1.15-1.64,5.26,5.26,0,0,1-2.76.74,5.32,5.32,0,0,1-2.76-.74A1,1,0,0,0,28.76,35.8Z"/>
<path d="M20.38,44.86a6.21,6.21,0,0,0-3.81,5.72v4.05A2.38,2.38,0,0,0,19,57H46.88a2.37,2.37,0,0,0,2.37-2.37V50.58a6.2,6.2,0,0,0-3.81-5.72,3.16,3.16,0,0,0-.12-.79l-.42-1.3a5.16,5.16,0,0,0,1.65-1.06,1,1,0,0,0,.26-1c-.06-.25-.22-1.12-.55-4a5,5,0,0,0,.81-7.87l-.19-2.22a13.9,13.9,0,0,0-9-11.83,2.45,2.45,0,0,0-.27-1.61L34.64,8.18a2.33,2.33,0,0,0-1.47-1.11,2.37,2.37,0,0,0-1.82.29,2.33,2.33,0,0,0-.67.62L27.57,12.3a3.61,3.61,0,0,0-5.39,3.12l-5.3.53a2.21,2.21,0,0,0-.87.27,2.35,2.35,0,0,0-.94,3.26L18,24.54a2.35,2.35,0,0,0,1.15,1c-.06.39-.16.76-.19,1.15l-.18,2.2a5.06,5.06,0,0,0-1.58,3.65,5,5,0,0,0,2.37,4.24,37.38,37.38,0,0,1-.55,4,1,1,0,0,0,.26,1,5.27,5.27,0,0,0,1.65,1.06l-.41,1.3A3.18,3.18,0,0,0,20.38,44.86Zm26.87,5.72v4.05a.38.38,0,0,1-.37.37H19a.38.38,0,0,1-.38-.37V50.58a4.21,4.21,0,0,1,2.52-3.86,1.83,1.83,0,0,0,.55.39,28.82,28.82,0,0,0,11.27,2.44H33v2.31a2.32,2.32,0,0,0,2.32,2.32h3.85a2.32,2.32,0,0,0,2.32-2.32V48.14a26.75,26.75,0,0,0,2.72-1,2.12,2.12,0,0,0,.55-.39A4.23,4.23,0,0,1,47.25,50.58ZM21,26.85a11.51,11.51,0,0,1,.23-1.43,2.3,2.3,0,0,0,.78-.68l3-4.12a3.56,3.56,0,0,0,4,.27,3.65,3.65,0,0,0,1.8-3.61l5-.5a2.25,2.25,0,0,0,.83-.27,12.25,12.25,0,0,1,1.79.74c-1.17,2.14-5.94,9.44-17.07,10.33l-.12,0a2.8,2.8,0,0,0-.31.09Zm1.27,3.84.1-1.22a24,24,0,0,0,11.2-4c1.1,1.17,4.55,4.46,8.85,4.46a9.17,9.17,0,0,0,1.16-.08l.08.89a10.69,10.69,0,0,1-3.74,9,2.42,2.42,0,0,0-.72-.14H35.3a2.29,2.29,0,0,0-2.17,1.57h-.22A21.5,21.5,0,0,1,26.29,40,10.68,10.68,0,0,1,22.22,30.69ZM39.15,41.57a.32.32,0,0,1,.32.32v10a.32.32,0,0,1-.32.32H35.3a.32.32,0,0,1-.32-.32v-10a.32.32,0,0,1,.32-.32Zm2.23-.11.37-.15a.68.68,0,0,1,.59,0l1.07,3.35c.05.14.13.53,0,.6-.46.2-1.12.47-1.91.75V41.89A1.93,1.93,0,0,0,41.38,41.46ZM33,47.55a26.42,26.42,0,0,1-10.53-2.27c-.16-.07-.08-.46,0-.6l1.06-3.34a.64.64,0,0,1,.59,0A23.66,23.66,0,0,0,33,43.15Zm11.77-6.94a3.33,3.33,0,0,1-.46.24l0-.13a2.07,2.07,0,0,0-1.11-1.23l-.22-.07a12.88,12.88,0,0,0,1.25-1.89l.16,0C44.53,39.17,44.66,40.1,44.75,40.61Zm.39-5.47a12.7,12.7,0,0,0,.46-4.61l0-.31a3,3,0,0,1-.43,4.92Zm-.25-8.3.07.86c-.11,0-.21-.08-.32-.1a.91.91,0,0,0-.49,0h0c-4,1.19-7.79-2.16-9-3.42a21.69,21.69,0,0,0,5-5.9A11.94,11.94,0,0,1,44.89,26.84ZM32.3,9.15a.28.28,0,0,1,.1-.09h0a.35.35,0,0,1,.5.12l2.92,5.06a.37.37,0,0,1-.27.55l-5.62.56L29,13.73ZM25,14.05a1.65,1.65,0,0,1,2.25.6l1.3,2.26a1.64,1.64,0,0,1-.6,2.25,1.66,1.66,0,0,1-2.25-.6l-1.3-2.26A1.66,1.66,0,0,1,25,14.05ZM16.8,18.48a.32.32,0,0,1,0-.27A.35.35,0,0,1,17,18l.13,0,5.61-.56L23.63,19l-3.3,4.57a.36.36,0,0,1-.31.15.35.35,0,0,1-.3-.18Zm3.45,11.74,0,.31a12.7,12.7,0,0,0,.46,4.61,3,3,0,0,1-1.5-2.61A3.06,3.06,0,0,1,20.25,30.22Zm.83,10.39c.09-.51.22-1.44.41-3.12l.16,0a12.94,12.94,0,0,0,1.26,1.89l-.23.07a2,2,0,0,0-1.1,1.23l0,.13A2.73,2.73,0,0,1,21.08,40.61Z"/>
</g>
</svg>