<?xml version="1.0" ?>
<!-- Uploaded to: SVG Repo, www.svgrepo.com, Generator: SVG Repo Mixer Tools -->
<svg width="800px" height="800px" viewBox="0 0 64 64" xmlns="http://www.w3.org/2000/svg">
<defs>
<style>.cls-1{fill:#eaafa5;}.cls-2{fill:#f1cbc6;}.cls-3{fill:#665e66;}.cls-4{fill:#544f57;}.cls-5{fill:#756e78;}.cls-6{fill:#d57080;}.cls-7,.cls-8{fill:#f6f9f9;}.cls-11,.cls-7{fill-opacity:0.99;}.cls-11,.cls-9{fill:#e7ecf1;}.cls-10{fill:#cb5769;}</style>
</defs>
<g data-name="Winter Avatar" id="Winter_Avatar-43">
<path class="cls-1" d="M44.18,36.77a4.6,4.6,0,0,0,1-9.09H18.87a4.6,4.6,0,0,0,.95,9.09Z" id="path114197-5-3"/>
<path class="cls-2" d="M18.79,28.69,18.68,30a13.36,13.36,0,1,0,26.64,0l-.19-2.33L37.26,17.05l-15.5,5.14Z" id="path99362-0-6"/>
<path class="cls-1" d="M40.19,21a12.56,12.56,0,0,1,.56,2.83l.32,3.84L41.26,30A13.37,13.37,0,0,1,30,44.31a13.57,13.57,0,0,0,2,.15A13.37,13.37,0,0,0,45.32,30l-.19-2.33Z" id="path101009-9-1"/>
<path class="cls-3" d="M33.15,22.9s5.57,6.66,12,4.77l-.32-3.84a12.66,12.66,0,0,0-5.21-9.24l-6.24,1.19Z" id="path113433-6-06"/>
<path class="cls-4" d="M32,12.14a12.36,12.36,0,0,0-2,.16,12.81,12.81,0,0,1,5.57,2.29,12.63,12.63,0,0,1,5.21,9.24l.32,3.84v.17a8.49,8.49,0,0,0,4.05-.17l-.32-3.84A12.76,12.76,0,0,0,32,12.14Z" id="path101011-3-3"/>
<path class="cls-5" d="M32,12.14A12.77,12.77,0,0,0,19.19,23.83l-.4,4.86A25,25,0,0,0,39.6,14.59,12.91,12.91,0,0,0,32,12.14Z" id="path22989-64-8-20"/>
<path class="cls-3" d="M32,12.14a12.36,12.36,0,0,0-2,.16,12.81,12.81,0,0,1,5.57,2.29,12.66,12.66,0,0,1,2.64,2.58,18.86,18.86,0,0,0,1.42-2.58A12.84,12.84,0,0,0,32,12.14Z" id="path186167-61"/>
<path class="cls-6" d="M20.47,46.13a5.92,5.92,0,0,0-5.93,5.93v2.38A1.56,1.56,0,0,0,16.1,56H47.9a1.56,1.56,0,0,0,1.56-1.56V52.06a5.92,5.92,0,0,0-5.93-5.93Z" id="path87473-7"/>
<path class="cls-7" d="M32,33.18a5.24,5.24,0,0,0-4,2.16L22.67,42a2,2,0,0,0,1.57,3c-.54.49-.92,2.46-1.06,3.18l-.28,1.4a2.25,2.25,0,0,0,2.2,2.69,52.44,52.44,0,0,0,6.9.64,52.44,52.44,0,0,0,6.9-.64,2.25,2.25,0,0,0,2.2-2.69l-.28-1.4c-.14-.71-.52-2.69-1.06-3.18a2,2,0,0,0,1.57-3L36,35.34A5.24,5.24,0,0,0,32,33.18Z" id="path85711-1"/>
<path class="cls-3" d="M32.09,12.14a13.43,13.43,0,0,0-2,.16,12.75,12.75,0,0,1,8.21,4.87,19.57,19.57,0,0,0,1.42-2.58A12.94,12.94,0,0,0,32.09,12.14Z" id="path186167-2-7-5"/>
<path class="cls-8" d="M17.64,22.57C18.58,14.24,24.77,8,32.09,8s13.52,6.24,14.46,14.57l-7.72-2.92L26.51,20Z" id="path15698-7-8-5"/>
<path class="cls-9" d="M32.09,8A13.83,13.83,0,0,0,30,8.18c5.87,1,10.67,6,12,12.67l4.56,1.72C45.61,14.24,39.42,8,32.09,8Z" id="path8791-4-4"/>
<path class="cls-6" d="M32.09,17.25c-10.34,0-15.59,6.47-15.59,6.47a2.14,2.14,0,0,0,3.37,2.63s3.57-4.83,12.22-4.83,12.23,4.83,12.23,4.83a2.14,2.14,0,0,0,3.37-2.63S42.44,17.25,32.09,17.25Z" id="path14243-9-5-7"/>
<path class="cls-10" d="M43.76,20.48A2.33,2.33,0,0,1,41.48,24a10.86,10.86,0,0,1,2.84,2.39,2.14,2.14,0,0,0,3.37-2.63A17,17,0,0,0,43.76,20.48Z" id="path8916-0-6"/>
<path class="cls-10" d="M40.21,46.13a5.92,5.92,0,0,1,5.92,5.93v2.38A1.56,1.56,0,0,1,44.57,56H47.9a1.56,1.56,0,0,0,1.56-1.56V52.06a5.92,5.92,0,0,0-5.93-5.93H40.21Z" id="path90058"/>
<path class="cls-11" d="M32,33.18a4.42,4.42,0,0,0-1.7.35,6,6,0,0,1,2.32,1.81L37.92,42a2,2,0,0,1-1.56,3c.54.49.91,2.47,1,3.18l.28,1.4a2.25,2.25,0,0,1-2.2,2.69c-1,0-2.3.45-5.19.6.52,0,1.07,0,1.7,0a52,52,0,0,0,6.89-.64,2.25,2.25,0,0,0,2.21-2.69l-.28-1.4c-.14-.71-.52-2.69-1.06-3.18a2,2,0,0,0,1.57-3L36,35.34A5.24,5.24,0,0,0,32,33.18Z" id="path90292"/>
<path d="M13.54,52.06v2.38A2.56,2.56,0,0,0,16.1,57H47.9a2.56,2.56,0,0,0,2.56-2.56V52.06a6.94,6.94,0,0,0-6.93-6.93H41.8a3.27,3.27,0,0,0,.53-.72,3,3,0,0,0-.22-3.06l0-.05a14.58,14.58,0,0,0,2.65-3.58,5.56,5.56,0,0,0,2.77-10,3.84,3.84,0,0,0,.35-.18,3.16,3.16,0,0,0,.53-4.42,13.17,13.17,0,0,0-1-1C46.25,13.45,39.7,7,32,7S17.75,13.45,16.61,22.07a13.35,13.35,0,0,0-1,1,3.16,3.16,0,0,0,.54,4.41c.1.08.22.13.32.2a5.56,5.56,0,0,0,2.8,10,14.58,14.58,0,0,0,2.65,3.58l-.1.12a3,3,0,0,0,.37,3.71H20.47A6.94,6.94,0,0,0,13.54,52.06Zm2,2.38V52.06a4.93,4.93,0,0,1,4.93-4.93h1.92c-.06.24-.11.46-.16.72l-.31,1.55a3.23,3.23,0,0,0,.68,2.69c1.07,1.31,2.12,1.07,3.79,1.35a29.43,29.43,0,0,0,4.61.47V55H16.1A.56.56,0,0,1,15.54,54.44ZM23.45,42.6,28.75,36A4.37,4.37,0,0,1,32,34.18h0A4.37,4.37,0,0,1,35.25,36l5.25,6.57a.94.94,0,0,1,0,1,1,1,0,0,1-.82.52,1,1,0,0,0-.92.65,1,1,0,0,0,.27,1.07,7.41,7.41,0,0,1,.73,2.51l.31,1.54a1.24,1.24,0,0,1-.26,1c-.49.6-.86.36-2.58.65a28.33,28.33,0,0,1-5.28.45,28.33,28.33,0,0,1-5.28-.45c-1.71-.29-2.09,0-2.58-.65a1.24,1.24,0,0,1-.26-1l.31-1.54a7.4,7.4,0,0,1,.72-2.49,1,1,0,0,0,.27-1.09,1,1,0,0,0-.91-.66.93.93,0,0,1-.82-.52A.91.91,0,0,1,23.45,42.6Zm25,9.46v2.38a.56.56,0,0,1-.56.56H33V53.91a29.43,29.43,0,0,0,4.61-.47c1.67-.28,2.72,0,3.79-1.35a3.22,3.22,0,0,0,.68-2.69l-.31-1.55c-.05-.26-.1-.48-.16-.72h1.92A4.93,4.93,0,0,1,48.46,52.06ZM45.65,35.45a14.33,14.33,0,0,0,.65-5.51l0-.69a3.58,3.58,0,0,1-.6,6.2ZM17.19,24.35a13.6,13.6,0,0,1,2-1.87,5.68,5.68,0,0,0,.62,2.34,6.89,6.89,0,0,0-.84.91,1.14,1.14,0,0,1-1.6.2A1.13,1.13,0,0,1,17.19,24.35Zm29.61,0A1.13,1.13,0,0,1,45,25.75a8.21,8.21,0,0,0-.86-.93,5.64,5.64,0,0,0,.62-2.33A13.14,13.14,0,0,1,46.8,24.34Zm-4.57-3.52a2.6,2.6,0,0,1,.32,2.69,16.33,16.33,0,0,0-3.91-1.94,4.19,4.19,0,0,0,.19-2.23A20.4,20.4,0,0,1,42.23,20.82Zm-5.68-2.09a2.58,2.58,0,0,1,.17,2.3,21.83,21.83,0,0,0-3.27-.46V18.3A22.28,22.28,0,0,1,36.55,18.73Zm-5.1,1.81a21.5,21.5,0,0,0-4.17.49,2.61,2.61,0,0,1,.18-2.31,22.11,22.11,0,0,1,4-.45Zm-6.09,1a16.33,16.33,0,0,0-3.91,1.94,2.62,2.62,0,0,1,.33-2.71,20.17,20.17,0,0,1,3.38-1.46A4.21,4.21,0,0,0,25.36,21.57Zm6.64.95h.06a23.61,23.61,0,0,1-12.15,5.05C20.8,26.93,23.66,22.52,32,22.52Zm2.87.2c5.92.83,8.44,4.07,8.57,4.24h0c-4,.35-7.46-2.61-8.86-4ZM32,9c6,0,11.26,4.64,13,11.13a22.72,22.72,0,0,0-13-3.88,22.72,22.72,0,0,0-13,3.88C20.74,13.64,26,9,32,9ZM16.23,32.18a3.6,3.6,0,0,1,1.52-2.93l-.05.69a14.33,14.33,0,0,0,.65,5.51A3.6,3.6,0,0,1,16.23,32.18Zm3.46-2.09,0-.49a25.61,25.61,0,0,0,13.32-5.32c1.46,1.49,5.17,4.75,9.7,4.75a9.33,9.33,0,0,0,1.47-.13l.09,1.19a12.33,12.33,0,0,1-3.5,9.63l-4-5A6.18,6.18,0,0,0,32,32.18h0a6.18,6.18,0,0,0-4.81,2.54l-4,5A12.37,12.37,0,0,1,19.69,30.09Z"/>
<path d="M28.58,31.26v-.89a1,1,0,0,0-2,0v.89a1,1,0,1,0,2,0Z"/>
<path d="M36.42,32.26a1,1,0,0,0,1-1v-.89a1,1,0,0,0-2,0v.89A1,1,0,0,0,36.42,32.26Z"/>
</g>
</svg>